<svg width="21" height="20" viewBox="0 0 21 20" fill="none" xmlns="http://www.w3.org/2000/svg">
<path opacity="0.4" d="M16.5 0H4.5C2.29086 0 0.5 1.79086 0.5 4V16C0.5 17.8642 1.77532 19.4306 3.50111 19.8743C3.82039 19.9563 4.1551 20 4.5 20H16.5C16.8449 20 17.1796 19.9563 17.4989 19.8743C19.2247 19.4306 20.5 17.8642 20.5 16V4C20.5 1.79086 18.7091 0 16.5 0Z" fill="#D51F26"/>
<circle cx="3" cy="3" r="3" transform="matrix(1 0 0 -1 7.5 11)" fill="#D51F26"/>
<path d="M4.49987 20H16.4999C16.8448 20 17.1795 19.9563 17.4988 19.8743C17.4317 16.0663 14.3239 13 10.4999 13C6.67588 13 3.56805 16.0663 3.50098 19.8743C3.82026 19.9563 4.15497 20 4.49987 20Z" fill="#D51F26"/>
</svg>
